<?xml version="1.0" encoding="utf-8"?>
<!-- Generator: Adobe Illustrator 26.1.0, SVG Export Plug-In . SVG Version: 6.00 Build 0)  -->
<svg version="1.1" id="Capa_1" xmlns="http://www.w3.org/2000/svg" xmlns:xlink="http://www.w3.org/1999/xlink" x="0px" y="0px"
	 viewBox="0 0 612 612" style="enable-background:new 0 0 612 612;" xml:space="preserve">
<style type="text/css">
	.st0{fill:#007BFF;}
</style>
<g id="tCyzgS.tif">
	<g>
		<path class="st0" d="M185,496c-59.6,0-119.2,0-178.8,0c0-124.7,0-249.4,0-374.1c0.3,0,0.6,0,0.9,0c58.1,0,116.1,0,174.2,0
			c10.3,0,20.6,0.5,30.8,1.9c12.6,1.7,24.8,4.8,36.4,10c25.2,11.4,41.8,30.2,49,57c4.7,17.6,4.8,35.4,0.8,53.1
			c-2.8,12.4-8.3,23.5-17,32.8c-6.3,6.8-13.9,11.9-21.9,16.3c-1.3,0.7-2.6,1.4-4,2.2c1.9,0.7,3.6,1.4,5.2,2.1c1.7,0.7,3.4,1.5,5,2.3
			c19.9,9.7,33.7,25,41.3,45.8c3.4,9.3,5.2,18.9,5.8,28.7c0.8,12.9-0.1,25.7-3.3,38.3c-3,12-8.2,23-15,33.3
			c-14.2,21.3-33.3,35.9-58.1,42.9c-14.6,4.2-29.6,5.8-44.7,6.8C189.5,495.7,187.3,495.9,185,496z M92.6,431c0.4,0,0.8,0.1,1.1,0.1
			c27.7,0,55.4,0,83.2-0.1c8.7,0,17.3-1.1,25.7-3.7c13.9-4.4,23.5-13.3,28.2-27.2c3.4-10,4-20.2,2.8-30.6
			c-0.8-6.5-2.8-12.6-6.6-18.1c-5.6-8.2-13.5-13-22.7-15.9c-9.2-2.9-18.6-3.9-28.2-4c-27.5-0.1-55.1-0.1-82.6-0.1
			c-0.3,0-0.6,0.1-0.9,0.1C92.6,364.7,92.6,397.8,92.6,431z M92.6,269.5c0.6,0,1.1,0,1.6,0c25.3,0,50.6,0,75.9,0
			c4.2,0,8.5-0.2,12.7-0.5c8.3-0.7,16.3-2.6,24-6.2c7.2-3.4,13-8.3,16.1-15.8c4.5-10.8,4.8-22,1.9-33.1c-2.9-11.3-10.2-18.7-21.5-22
			c-11.9-3.5-24.2-4.7-36.6-4.8c-24.4-0.1-48.7-0.1-73.1-0.1c-0.3,0-0.7,0-1.1,0.1C92.6,214.5,92.6,241.9,92.6,269.5z"/>
		<path class="st0" d="M607.8,370.2c-64.5,0-129.1,0-193.6,0c-0.5,0-1,0-1.7,0c0.2,2.2,0.3,4.4,0.5,6.5c0.8,8.3,2.5,16.4,5.7,24.1
			c6.5,15.8,18.2,26.1,34.1,31.8c10.7,3.9,21.8,4.7,33,3.9c8.6-0.6,16.9-2.6,24.6-6.8c9.3-5.1,16.1-12.6,21.1-21.8
			c0.8-1.4,1.6-1.9,3.2-1.9c22.6,0.1,45.3,0,67.9,0c0.5,0,0.9,0,1.8,0c-0.9,3.9-1.6,7.7-2.8,11.3c-3.4,11.1-9.5,20.7-16.8,29.6
			c-10.3,12.6-22.3,23.2-36.8,30.9c-12.1,6.4-24.9,10.6-38.3,13c-13.9,2.5-27.8,3.3-41.9,2.5c-32.8-1.8-61.8-13.3-86.9-34.4
			c-12.2-10.2-20.9-23-27.1-37.6c-5.1-12.1-8.1-24.7-9.9-37.6c-2-15-2.4-30.1-1.5-45.2c0.9-15.3,3.3-30.3,8.1-44.9
			c11.5-34.7,34.3-59.3,67.8-73.8c12.4-5.4,25.6-8.3,39-9.6c19.4-1.9,38.6-0.9,57.6,3.8c15,3.7,29,9.6,41.6,18.7
			c13,9.4,23.2,21.4,31.5,35c8.5,14,13.8,29.2,16.7,45.3c1.6,8.6,2.2,17.4,2.6,26.1c0.1,2.5,0.2,4.9,0.3,7.4c0,0.4,0.1,0.8,0.2,1.1
			C607.8,355.1,607.8,362.7,607.8,370.2z M534.9,323.9c0-0.5,0-0.9-0.1-1.3c-0.7-4.3-1.1-8.7-2.1-12.9
			c-4.5-18.6-15.9-31.3-33.6-38.2c-13-5.1-26.5-5.4-40.1-2.7c-9.8,1.9-18.5,6.2-25.6,13.3c-7.5,7.5-12.5,16.6-15.7,26.7
			c-1.6,5-2.7,10-3.4,15.2C454.5,323.9,494.7,323.9,534.9,323.9z"/>
		<path class="st0" d="M398.8,174.8c0-12.4,0-24.8,0-37.2c50.2,0,100.4,0,150.6,0c0,12.4,0,24.7,0,37.2
			C499.3,174.8,449.1,174.8,398.8,174.8z"/>
	</g>
</g>
</svg>
