<?xml version="1.0" encoding="utf-8"?>
<!-- Generator: Adobe Illustrator 26.1.0, SVG Export Plug-In . SVG Version: 6.00 Build 0)  -->
<svg version="1.1" id="Capa_1" xmlns="http://www.w3.org/2000/svg" xmlns:xlink="http://www.w3.org/1999/xlink" x="0px" y="0px"
	 viewBox="0 0 31.7 31.7" style="enable-background:new 0 0 31.7 31.7;" xml:space="preserve">
<style type="text/css">
	.st0{fill:#007BFF;}
</style>
<g id="bOP8Xz.tif">
	<g>
		<path class="st0" d="M31.5,16c0,4.4,0,8.8,0,13.2c0,0.2-0.1,0.4-0.1,0.6c-0.1,0.2-0.2,0.4-0.3,0.6c-0.1,0.2-0.3,0.3-0.4,0.4
			c-0.1,0.1-0.3,0.2-0.4,0.3c-0.2,0.1-0.4,0.2-0.6,0.2c-0.2,0-0.4,0-0.7,0c-0.6,0-1.1,0-1.7,0c-1.1,0-2.1,0-3.2,0
			c-4.3,0-8.6,0-12.9,0c-2.2,0-4.5,0-6.7,0c-0.1,0-0.3,0-0.4,0c-0.3,0-0.7,0-1,0c-0.2,0-0.4,0-0.6-0.1c-0.2-0.1-0.4-0.1-0.5-0.2
			c-0.1-0.1-0.2-0.2-0.3-0.2c-0.2-0.2-0.4-0.4-0.5-0.6c-0.1-0.1-0.1-0.3-0.2-0.4c-0.1-0.2-0.1-0.4-0.1-0.6c0-0.2,0-0.4,0-0.6
			c0-0.9,0-1.8,0-2.7c0-0.1,0-0.3,0-0.4c0-0.3,0-0.5,0-0.8c0-0.1,0-0.3,0-0.4c0-0.9,0-1.9,0-2.8c0-5.3,0-10.6,0-15.9
			c0-1,0-1.9,0-2.9c0-0.2,0-0.4,0.1-0.5C0.8,2.1,0.9,2,1,1.9C1,1.8,1.1,1.6,1.2,1.5c0.1-0.2,0.2-0.3,0.4-0.4c0,0,0.1-0.1,0.1-0.1
			c0.1-0.1,0.3-0.2,0.4-0.2c0.2-0.1,0.4-0.1,0.6-0.2c0.3-0.1,0.6,0,0.8,0c4.8,0,9.6,0,14.4,0c3.5,0,6.9,0,10.4,0c0.3,0,0.6,0,1,0
			c0.2,0,0.4,0,0.6,0.1c0.3,0.1,0.5,0.2,0.7,0.4c0.1,0.1,0.3,0.3,0.4,0.4c0.1,0.1,0.2,0.3,0.2,0.4c0.1,0.1,0.1,0.3,0.2,0.4
			c0,0.1,0.1,0.3,0.1,0.4C31.5,7.2,31.5,11.6,31.5,16z M6.8,14.8C6.8,14.8,6.8,14.8,6.8,14.8c0-1.1,0-2.1,0-3.1c0,0,0-0.1,0-0.1
			c0,0,0-0.1,0.1-0.1c0.1,0,0.2,0,0.3,0c0.8,0,1.6,0,2.4,0c0.2,0,0.4,0.1,0.6,0.3c0.2,0.3,0.3,0.6,0.4,0.9c0,0.2,0.1,0.3,0.1,0.5
			c0,0.1,0.1,0.1,0.2,0.1c0.1,0,0.2,0,0.2,0c0.1,0,0.1,0,0.1-0.1c0-0.1,0-0.1,0-0.2c0-0.2,0-0.4,0-0.6c0-0.2,0-0.4,0-0.6
			c0-0.3,0-0.6,0.1-0.9c0-0.1,0-0.1-0.1-0.1c0,0,0,0-0.1,0c-0.4,0-0.7,0.1-1.1,0.1c-0.3,0-0.6,0-0.9,0c-1.3,0-2.5,0-3.8,0
			c-0.3,0-0.7,0-1,0c-0.1,0-0.1,0-0.1,0.1c0,0.1,0,0.2,0,0.3c0,0.1,0,0.1,0.1,0.1c0.3,0.1,0.5,0.1,0.8,0.2c0.2,0,0.3,0.2,0.3,0.4
			c0,0.3,0,0.6,0,0.9c0,0.6,0,1.1,0,1.7c0,1.1,0,2.3,0,3.4c0,0.1,0,0.3,0,0.4c0,0.3-0.2,0.4-0.4,0.5c-0.2,0.1-0.5,0.1-0.7,0.1
			c0,0-0.1,0-0.1,0.1c0,0.1,0,0.3,0,0.4c0,0.1,0,0.1,0.1,0.1c0.1,0,0.1,0,0.2,0c0.3,0,0.6,0,0.9,0c0.4,0,0.8,0,1.3,0
			c0.3,0,0.6,0,0.9,0c0.5,0,1,0,1.4,0c0.4,0,0.8,0,1.3,0c0.2,0,0.4,0,0.6,0c0.2,0,0.4,0,0.6,0c0.1,0,0.1,0,0.1-0.1
			c0-0.1,0-0.1,0-0.2c0-0.3,0-0.6,0.1-0.8c0-0.3,0.1-0.6,0.1-0.9c0-0.2,0-0.3,0.1-0.5c0-0.1,0-0.1-0.1-0.1c-0.1,0-0.2,0-0.2,0
			c-0.1,0-0.1,0-0.1,0.1c0,0.1-0.1,0.2-0.1,0.3c-0.1,0.2-0.2,0.4-0.3,0.6c-0.1,0.3-0.2,0.5-0.5,0.7c-0.2,0.2-0.4,0.3-0.6,0.3
			c-0.4,0-0.8,0-1.2,0c-0.3,0-0.7,0-1,0c-0.1,0-0.3,0-0.4-0.1c-0.1,0-0.2-0.1-0.3-0.2c-0.1-0.1-0.1-0.3-0.1-0.4c0-0.8,0-1.6,0-2.4
			c0-0.1,0-0.2,0-0.3c0-0.1,0-0.1,0.1-0.1c0.1,0,0.2,0,0.2,0c0.2,0,0.4,0,0.5,0c0.3,0,0.6,0,0.9,0c0.1,0,0.2,0,0.3,0.1
			C9,15.6,9.1,15.8,9.1,16c0.1,0.2,0.1,0.4,0.1,0.6c0,0.1,0,0.1,0.1,0.1c0.1,0,0.2,0,0.4,0c0.1,0,0.1,0,0.1-0.1c0-0.1,0-0.1,0-0.2
			c0-0.4,0-0.7,0-1.1c0-0.3,0-0.6,0-0.8c0-0.1,0-0.3,0-0.4c0-0.1,0-0.3,0-0.4c0,0,0-0.1-0.1-0.1c-0.1,0-0.2,0-0.3,0
			c-0.1,0-0.1,0-0.1,0.1c0,0.1,0,0.1,0,0.2c-0.1,0.2-0.1,0.5-0.2,0.7c0,0.1-0.1,0.2-0.3,0.2c-0.1,0-0.2,0-0.3,0c-0.2,0-0.5,0-0.7,0
			C7.5,14.8,7.2,14.8,6.8,14.8z M22.5,22.1c0.4,0,0.8,0,1.1-0.2c0.3-0.1,0.6-0.3,0.8-0.6c0.2-0.2,0.5-0.5,0.6-0.8
			c0.2-0.3,0.3-0.5,0.4-0.8c0.1-0.3,0.3-0.6,0.4-0.9c0.1-0.3,0.2-0.6,0.4-0.9c0.1-0.3,0.2-0.6,0.4-0.8c0.2-0.4,0.3-0.7,0.5-1.1
			c0.1-0.2,0.2-0.4,0.2-0.6c0.1-0.2,0.2-0.4,0.2-0.5c0.1-0.2,0.1-0.3,0.3-0.4c0.2-0.1,0.3-0.1,0.5-0.2c0.1,0,0.1-0.1,0.1-0.1
			c0-0.1,0-0.1,0-0.2c0-0.1,0-0.2-0.2-0.1c-0.3,0-0.5,0.1-0.8,0.1c-0.3,0-0.7,0-1,0c-0.1,0-0.2,0-0.3,0c-0.1,0-0.1,0-0.1,0.1
			c0,0.1,0,0.2,0,0.3c0,0.1,0,0.1,0.1,0.1c0.1,0,0.3,0.1,0.4,0.1c0.2,0.1,0.3,0.2,0.2,0.4c0,0.1-0.1,0.2-0.1,0.3
			c0,0.1-0.1,0.2-0.1,0.3c-0.1,0.2-0.2,0.4-0.2,0.6c-0.1,0.2-0.2,0.4-0.3,0.6c-0.1,0.2-0.2,0.4-0.3,0.6c-0.1,0.3-0.2,0.5-0.4,0.8
			c0,0,0,0.1-0.1,0.1c0,0,0,0.1-0.1,0.1c0,0,0-0.1-0.1-0.1c0,0,0,0,0,0c-0.1-0.2-0.1-0.4-0.2-0.6c-0.1-0.4-0.3-0.7-0.4-1.1
			c-0.1-0.3-0.2-0.5-0.3-0.8c-0.1-0.3-0.2-0.6-0.3-0.9c-0.1-0.3,0-0.4,0.2-0.5c0.1-0.1,0.3-0.1,0.5-0.1c0,0,0.1,0,0.1-0.1
			c0-0.1,0-0.2,0-0.3c0-0.1,0-0.1-0.1-0.1c-0.2,0-0.3,0-0.5,0c-0.3,0-0.7,0-1,0c-0.2,0-0.5,0-0.7,0c-0.2,0-0.3,0-0.5,0
			c-0.1,0-0.1,0-0.1,0.1c0,0.1,0,0.1,0,0.2c0,0.2,0,0.2,0.1,0.2c0,0,0.1,0,0.1,0c0.1,0,0.2,0.1,0.2,0.1c0.1,0.1,0.2,0.3,0.3,0.4
			c0.1,0.3,0.3,0.6,0.4,0.9c0.2,0.4,0.4,0.9,0.5,1.3c0.2,0.5,0.4,0.9,0.5,1.4c0.1,0.4,0.3,0.7,0.4,1.1c0,0.1,0.1,0.1,0.1,0.2
			c0,0.1,0,0.1,0,0.2c0,0.1-0.1,0.2-0.1,0.2c-0.1,0.2-0.2,0.4-0.4,0.6c-0.1,0.2-0.3,0.4-0.5,0.5c-0.3,0.2-0.6,0.2-0.9,0.2
			c-0.2,0-0.4-0.1-0.4-0.3c0-0.1-0.1-0.3-0.1-0.4c0-0.2-0.1-0.3-0.1-0.5c0-0.1-0.1-0.1-0.1-0.1c-0.1,0-0.2,0-0.3,0
			c-0.1,0-0.1,0-0.1,0.1c0,0.1,0,0.2,0,0.4c0,0.1-0.1,0.1-0.1,0.2c0,0.3-0.1,0.6-0.2,0.9c0,0.1,0,0.2,0,0.2c0.1,0.1,0.3,0.1,0.4,0.2
			C22,22.1,22.3,22.1,22.5,22.1z M19.1,19.6c0.2,0,0.3,0,0.5-0.1c0.2,0,0.5-0.1,0.7-0.2c0.2-0.1,0.4-0.2,0.6-0.4
			c0.2-0.2,0.3-0.4,0.4-0.7c0.1-0.3,0.1-0.7-0.1-1c-0.1-0.2-0.2-0.3-0.3-0.5c-0.3-0.3-0.6-0.5-1-0.7c-0.2-0.1-0.3-0.1-0.5-0.2
			c-0.2-0.1-0.3-0.1-0.4-0.2c-0.3-0.2-0.6-0.4-0.6-0.8c0-0.2,0-0.3,0.1-0.5c0.1-0.2,0.3-0.3,0.5-0.3c0.3-0.1,0.5-0.1,0.8,0
			c0.2,0.1,0.4,0.2,0.5,0.4c0.1,0.2,0.1,0.4,0.2,0.7c0,0.1,0.1,0.1,0.1,0.1c0.1,0,0.2,0,0.3,0c0,0,0.1,0,0.1-0.1c0-0.2,0-0.5,0-0.7
			c0-0.2,0-0.4,0.1-0.6c0-0.1,0-0.2-0.1-0.2c-0.2-0.1-0.4-0.1-0.6-0.1c-0.3,0-0.5-0.1-0.8-0.1c-0.4,0-0.7,0-1,0.1
			c-0.3,0.1-0.6,0.3-0.8,0.5c-0.1,0.2-0.2,0.4-0.3,0.6c-0.1,0.2-0.1,0.5,0,0.7c0,0.2,0.1,0.4,0.2,0.5c0.1,0.2,0.3,0.4,0.5,0.5
			c0.2,0.1,0.5,0.3,0.7,0.4c0.3,0.2,0.7,0.3,1,0.5c0.2,0.1,0.3,0.3,0.4,0.5c0.1,0.2,0.1,0.4,0,0.7C20.1,18.8,20,19,19.7,19
			c-0.3,0.1-0.6,0.1-1,0c-0.3-0.1-0.5-0.3-0.6-0.6c-0.1-0.3-0.2-0.5-0.3-0.8c0,0-0.1-0.1-0.1-0.1c-0.1,0-0.2,0-0.3,0
			c-0.1,0-0.1,0-0.1,0.1c0,0.2,0,0.4,0,0.5c0,0.3,0,0.6,0,0.9c0,0.2,0,0.2,0.2,0.2c0.2,0.1,0.5,0.1,0.7,0.2
			C18.5,19.6,18.8,19.6,19.1,19.6z M14.5,14.4c0.1,0,0.2,0,0.3,0c0.2,0,0.4,0,0.7,0.1c0.2,0,0.4,0,0.6,0c0.1,0,0.1,0,0.1-0.1
			c0-0.2,0-0.4,0.1-0.5c0-0.2,0-0.2-0.2-0.2c-0.3,0-0.6,0-0.9,0.1c-0.2,0-0.4,0-0.6,0c-0.1,0-0.1,0-0.1-0.1c0-0.5,0-1.1,0-1.6
			c0-0.1,0-0.1-0.1-0.1c-0.1,0-0.2,0-0.3,0c-0.1,0-0.1,0-0.1,0.1c0,0.2-0.1,0.4-0.1,0.6c0,0.1-0.1,0.3-0.2,0.4
			c-0.1,0.2-0.2,0.3-0.3,0.5c-0.3,0.3-0.6,0.5-1,0.5c-0.1,0-0.1,0.1-0.1,0.1c0,0.1,0,0.2,0,0.2c0,0.1,0,0.1,0.1,0.1
			c0.1,0,0.2,0,0.2,0c0.2,0,0.4,0,0.6,0c0.1,0,0.1,0,0.1,0.1c0,0.1,0,0.1,0,0.2c0,0.2,0,0.4,0,0.6c0,1,0,2,0,3c0,0.1,0,0.3,0.1,0.4
			c0.1,0.2,0.2,0.4,0.4,0.5c0.2,0.1,0.4,0.2,0.6,0.2c0.2,0,0.4,0,0.5,0c0.2,0,0.5-0.1,0.7-0.2c0.3-0.1,0.5-0.3,0.7-0.6
			c0-0.1,0.1-0.1,0-0.2c0-0.1-0.1-0.2-0.2-0.2c0-0.1-0.1-0.1-0.2,0c-0.1,0.1-0.2,0.2-0.3,0.3c-0.2,0.1-0.4,0.1-0.7,0.1
			c-0.1,0-0.2,0-0.3-0.1c-0.2-0.1-0.3-0.3-0.3-0.5c0-0.3-0.1-0.5-0.1-0.8c0-0.8,0-1.7,0-2.5c0-0.1,0-0.2,0-0.3
			C14.5,14.6,14.5,14.5,14.5,14.4z"/>
	</g>
</g>
</svg>
